TITLE ""
FILE "Step4_Track08.mp3" MP3
  TRACK 01 AUDIO
    TITLE "Step4_Track08_01"
    INDEX 01 00:00:00
  TRACK 02 AUDIO
    TITLE "Step4_Track08_02"
    INDEX 01 00:00:22
  TRACK 03 AUDIO
    TITLE "Step4_Track08_03"
    INDEX 01 00:01:33
  TRACK 04 AUDIO
    TITLE "Step4_Track08_04"
    INDEX 01 00:02:17
  TRACK 05 AUDIO
    TITLE "Step4_Track08_05"
    INDEX 01 00:03:16
  TRACK 06 AUDIO
    TITLE "Step4_Track08_06"
    INDEX 01 00:03:26
  TRACK 07 AUDIO
    TITLE "Step4_Track08_07"
    INDEX 01 00:05:04
  TRACK 08 AUDIO
    TITLE "Step4_Track08_08"
    INDEX 01 00:05:31
  TRACK 09 AUDIO
    TITLE "Step4_Track08_09"
    INDEX 01 00:06:27
  TRACK 10 AUDIO
    TITLE "Step4_Track08_10"
    INDEX 01 00:06:38
  TRACK 11 AUDIO
    TITLE "Step4_Track08_11"
    INDEX 01 00:08:57
  TRACK 12 AUDIO
    TITLE "Step4_Track08_12"
    INDEX 01 00:09:13
  TRACK 13 AUDIO
    TITLE "Step4_Track08_13"
    INDEX 01 00:10:09
  TRACK 14 AUDIO
    TITLE "Step4_Track08_14"
    INDEX 01 00:10:22
  TRACK 15 AUDIO
    TITLE "Step4_Track08_15"
    INDEX 01 00:11:75
  TRACK 16 AUDIO
    TITLE "Step4_Track08_16"
    INDEX 01 00:12:31
  TRACK 17 AUDIO
    TITLE "Step4_Track08_17"
    INDEX 01 00:13:25
  TRACK 18 AUDIO
    TITLE "Step4_Track08_18"
    INDEX 01 00:13:38
  TRACK 19 AUDIO
    TITLE "Step4_Track08_19"
    INDEX 01 00:15:55
  TRACK 20 AUDIO
    TITLE "Step4_Track08_20"
    INDEX 01 00:15:73
  TRACK 21 AUDIO
    TITLE "Step4_Track08_21"
    INDEX 01 00:16:66
  TRACK 22 AUDIO
    TITLE "Step4_Track08_22"
    INDEX 01 00:17:15
  TRACK 23 AUDIO
    TITLE "Step4_Track08_23"
    INDEX 01 00:19:70
  TRACK 24 AUDIO
    TITLE "Step4_Track08_24"
    INDEX 01 00:20:03
  TRACK 25 AUDIO
    TITLE "Step4_Track08_25"
    INDEX 01 00:21:05
  TRACK 26 AUDIO
    TITLE "Step4_Track08_26"
    INDEX 01 00:21:16
  TRACK 27 AUDIO
    TITLE "Step4_Track08_27"
    INDEX 01 00:23:25
  TRACK 28 AUDIO
    TITLE "Step4_Track08_28"
    INDEX 01 00:23:54
  TRACK 29 AUDIO
    TITLE "Step4_Track08_29"
    INDEX 01 00:24:58
  TRACK 30 AUDIO
    TITLE "Step4_Track08_30"
    INDEX 01 00:24:72
  TRACK 31 AUDIO
    TITLE "Step4_Track08_31"
    INDEX 01 00:27:68
  TRACK 32 AUDIO
    TITLE "Step4_Track08_32"
    INDEX 01 00:28:13
  TRACK 33 AUDIO
    TITLE "Step4_Track08_33"
    INDEX 01 00:29:02
  TRACK 34 AUDIO
    TITLE "Step4_Track08_34"
    INDEX 01 00:29:34
  TRACK 35 AUDIO
    TITLE "Step4_Track08_35"
    INDEX 01 00:33:23
  TRACK 36 AUDIO
    TITLE "Step4_Track08_36"
    INDEX 01 00:33:35
  TRACK 37 AUDIO
    TITLE "Step4_Track08_37"
    INDEX 01 00:34:39
  TRACK 38 AUDIO
    TITLE "Step4_Track08_38"
    INDEX 01 00:34:56
  TRACK 39 AUDIO
    TITLE "Step4_Track08_39"
    INDEX 01 00:37:31
  TRACK 40 AUDIO
    TITLE "Step4_Track08_40"
    INDEX 01 00:37:49
  TRACK 41 AUDIO
    TITLE "Step4_Track08_41"
    INDEX 01 00:38:42
  TRACK 42 AUDIO
    TITLE "Step4_Track08_42"
    INDEX 01 00:38:64
  TRACK 43 AUDIO
    TITLE "Step4_Track08_43"
    INDEX 01 00:41:62
